<svg width="128" height="48" viewBox="0 0 128 48" fill="none" xmlns="http://www.w3.org/2000/svg">
<path d="M127.36 26.6141C127.36 27.2535 126.841 27.773 126.205 27.773C125.569 27.773 125.049 27.2535 125.049 26.6175C125.049 26.1379 125.342 25.725 125.759 25.5518C125.899 25.4919 126.048 25.4586 126.208 25.4586C126.844 25.4586 127.364 25.9747 127.364 26.6141M127.81 26.6141C127.81 25.7316 127.094 25.0157 126.208 25.0157C125.322 25.0157 124.61 25.7316 124.61 26.6141C124.61 27.4966 125.326 28.2126 126.208 28.2126C127.091 28.2126 127.81 27.4966 127.81 26.6141Z" fill="white"/>
<path d="M125.569 27.4V25.7949H125.965C126.245 25.7949 126.438 25.8116 126.541 25.8449C126.731 25.9048 126.824 26.0313 126.824 26.2278C126.824 26.3244 126.791 26.4076 126.721 26.4742C126.654 26.5442 126.561 26.5841 126.445 26.5975V26.6041C126.525 26.6108 126.591 26.6641 126.638 26.7706L126.931 27.4H126.525L126.305 26.9005C126.278 26.8372 126.248 26.7939 126.215 26.774C126.178 26.7473 126.122 26.734 126.048 26.734H125.932V27.4H125.566H125.569ZM125.935 26.048V26.4809H126.055C126.311 26.4809 126.441 26.4076 126.441 26.2578C126.441 26.1712 126.398 26.1146 126.318 26.0813C126.262 26.0613 126.175 26.0513 126.058 26.0513H125.939L125.935 26.048Z" fill="white"/>
<path d="M89.4437 43.2746V45.1827C89.4437 45.4225 89.4803 45.5823 89.5569 45.6623C89.6335 45.7422 89.7934 45.7822 90.0331 45.7822V45.9487H88.2615V45.7822C88.6545 45.7822 88.8509 45.5957 88.8509 45.226V43.3745C88.8509 43.228 88.841 43.1347 88.8243 43.0914C88.791 43.0148 88.7111 42.9649 88.5879 42.9416L88.2882 42.8816V42.7418L89.3005 42.3721H89.4404V43.0615C89.84 42.8117 90.1131 42.6519 90.2596 42.5819C90.5293 42.4421 90.7624 42.3721 90.9556 42.3721C91.585 42.3721 91.898 42.8117 91.898 43.6909C91.898 44.1604 91.888 44.5533 91.8614 44.8697C91.8514 45.0562 91.8381 45.246 91.8281 45.4325C91.8214 45.6656 91.9879 45.7855 92.3209 45.7855H92.5141V45.952H90.6192V45.7855C90.849 45.7788 91.0222 45.7189 91.1354 45.6057C91.252 45.4924 91.3086 44.8364 91.3086 43.6409C91.3086 43.0248 91.0755 42.7185 90.6126 42.7185C90.3728 42.7185 89.9799 42.9049 89.4404 43.2812" fill="white"/>
<path d="M94.7686 45.3592V44.3102C94.6387 44.3868 94.4655 44.4701 94.2491 44.5567C93.9494 44.6799 93.7562 44.7731 93.6763 44.8397C93.5631 44.9263 93.5098 45.0562 93.5098 45.226C93.5098 45.3792 93.5597 45.5024 93.663 45.599C93.7662 45.6956 93.8894 45.7455 94.0293 45.7455C94.1525 45.7455 94.3989 45.6156 94.7686 45.3592ZM93.623 43.218L93.0236 43.5077C93.0069 43.4544 92.9969 43.4144 92.9969 43.3845C92.9969 43.2146 93.1468 43.0015 93.4465 42.7451C93.7462 42.4887 94.0326 42.3621 94.3023 42.3621C94.6953 42.3621 95.005 42.5186 95.2281 42.8283C95.3147 42.9516 95.3613 43.2046 95.3613 43.5876V44.7698C95.3613 45.1461 95.3713 45.3792 95.388 45.4658C95.4179 45.5757 95.4845 45.6323 95.5911 45.6323C95.7243 45.6323 95.8708 45.569 96.024 45.4391L96.0673 45.5723C95.6744 45.8954 95.3813 46.0552 95.1948 46.0552C94.9484 46.0552 94.8119 45.8754 94.7885 45.5191C94.5055 45.7488 94.289 45.902 94.1358 45.9786C94.0226 46.0319 93.8994 46.0585 93.7662 46.0585C93.5131 46.0585 93.3133 45.9919 93.1668 45.8621C93.0202 45.7322 92.947 45.5557 92.947 45.3359C92.947 45.0895 93.0502 44.8963 93.2567 44.7531C93.4099 44.6466 93.653 44.5533 93.9893 44.4701C94.2491 44.4068 94.5088 44.2936 94.7752 44.1337V43.4378C94.7752 43.178 94.7253 42.9915 94.6254 42.875C94.4855 42.7051 94.3223 42.6185 94.1358 42.6185C93.996 42.6185 93.8694 42.6652 93.7595 42.7584C93.6496 42.8517 93.593 42.9482 93.593 43.0481C93.593 43.0948 93.603 43.1514 93.6297 43.2146" fill="white"/>
<path d="M97.5292 43.2246V45.2327C97.5292 45.4691 97.5759 45.619 97.6691 45.6922C97.7457 45.7522 97.9055 45.7821 98.1453 45.7821V45.9486H96.3104V45.7821C96.5502 45.7821 96.7167 45.7289 96.8033 45.6223C96.8899 45.5157 96.9365 45.3426 96.9365 45.1028V43.3745C96.9365 43.228 96.9265 43.1281 96.9098 43.0748C96.8732 42.9915 96.7966 42.9416 96.6801 42.9249L96.3371 42.8816V42.7318L97.396 42.3621H97.5292V43.0681C98.1919 42.5986 98.7181 42.3621 99.0977 42.3621C99.5606 42.3621 99.8403 42.5986 99.9336 43.0681C100.686 42.5986 101.206 42.3621 101.492 42.3621C102.078 42.3621 102.375 42.805 102.375 43.6942C102.375 44.3402 102.365 44.903 102.348 45.3859C102.338 45.6489 102.491 45.7821 102.814 45.7821H103.097V45.9486H101.112V45.7821H101.192C101.409 45.7821 101.562 45.7388 101.652 45.6489C101.742 45.5624 101.785 45.1461 101.785 44.4068V43.7175C101.785 43.0481 101.565 42.7118 101.126 42.7118C100.843 42.7118 100.453 42.875 99.9536 43.2046V45.2327C99.9536 45.4491 99.9902 45.5957 100.063 45.6689C100.137 45.7422 100.283 45.7788 100.5 45.7788V45.9453H98.6914V45.7788C98.9379 45.7788 99.111 45.7289 99.211 45.629C99.3109 45.5291 99.3608 45.3526 99.3608 45.0995V43.4677C99.3608 43.208 99.2909 43.0115 99.151 42.8783C99.0344 42.7651 98.8879 42.7118 98.7114 42.7118C98.4417 42.7118 98.0487 42.8816 97.5292 43.2213" fill="white"/>
<path d="M103.793 43.481H105.601C105.555 43.1947 105.452 42.9616 105.288 42.7884C105.125 42.6152 104.939 42.5286 104.729 42.5286C104.266 42.5286 103.953 42.845 103.793 43.481ZM106.341 43.7108H103.767C103.743 43.8873 103.73 44.0105 103.73 44.0805C103.73 44.5267 103.863 44.893 104.133 45.1827C104.399 45.4691 104.712 45.6156 105.072 45.6156C105.495 45.6156 105.868 45.4258 106.191 45.0429L106.287 45.1494C105.805 45.7555 105.282 46.0585 104.719 46.0585C104.283 46.0585 103.92 45.8854 103.627 45.539C103.334 45.1927 103.187 44.7631 103.187 44.2536C103.187 43.7441 103.337 43.3212 103.637 42.9582C103.96 42.5653 104.376 42.3688 104.889 42.3688C105.242 42.3688 105.522 42.4454 105.725 42.5986C105.865 42.7051 105.991 42.8683 106.104 43.0914C106.221 43.3312 106.301 43.4744 106.341 43.5143V43.7175V43.7108Z" fill="white"/>
<path d="M61.8969 40.6671C61.8969 40.5739 61.9336 40.494 62.0068 40.4274C62.0801 40.3641 62.17 40.3308 62.2766 40.3308C62.3831 40.3308 62.4731 40.3641 62.5497 40.4274C62.6262 40.4906 62.6629 40.5705 62.6629 40.6671C62.6629 40.7637 62.6262 40.8403 62.5497 40.9069C62.4731 40.9702 62.3831 41.0035 62.2766 41.0035C62.17 41.0035 62.0801 40.9702 62.0068 40.9069C61.9336 40.8436 61.8969 40.7637 61.8969 40.6671ZM62.6362 42.3155V45.276C62.6362 45.609 62.846 45.7788 63.2723 45.7788V45.9453H61.3142V45.7788C61.5839 45.7788 61.7737 45.7289 61.8836 45.6323C61.9935 45.5357 62.0468 45.3692 62.0468 45.1361V43.3645C62.0468 43.2113 62.0368 43.1147 62.0202 43.0748C61.9869 43.0048 61.9036 42.9582 61.7737 42.9349L61.3608 42.855V42.7151L62.5064 42.3188H62.6396L62.6362 42.3155Z" fill="white"/>
<path d="M64.8541 43.2746V45.1827C64.8541 45.4225 64.894 45.5823 64.9706 45.6623C65.0472 45.7422 65.2071 45.7822 65.4468 45.7822V45.9487H63.6752V45.7822C64.0682 45.7822 64.2646 45.5957 64.2646 45.226V43.3745C64.2646 43.228 64.2546 43.1347 64.238 43.0914C64.2014 43.0148 64.1215 42.9649 64.0016 42.9416L63.7019 42.8816V42.7418L64.7142 42.3721H64.8541V43.0615C65.2537 42.8117 65.5268 42.6519 65.6733 42.5819C65.943 42.4421 66.1761 42.3721 66.3693 42.3721C66.9987 42.3721 67.3117 42.8117 67.3117 43.6909C67.3117 44.1604 67.2984 44.5533 67.2751 44.8697C67.2618 45.0562 67.2518 45.246 67.2384 45.4325C67.2318 45.6656 67.3983 45.7855 67.7313 45.7855H67.9245V45.952H66.0296V45.7855C66.2594 45.7788 66.4292 45.7189 66.5458 45.6057C66.659 45.4924 66.7189 44.8364 66.7189 43.6409C66.7189 43.0248 66.4858 42.7185 66.0229 42.7185C65.7832 42.7185 65.3902 42.9049 64.8508 43.2812" fill="white"/>
<path d="M71.0848 41.2765V45.0395C71.0848 45.9253 70.9182 46.6413 70.5886 47.1841C70.2555 47.7269 69.8126 48 69.2598 48C69.0201 48 68.8169 47.9534 68.6504 47.8635C68.4873 47.7736 68.404 47.6603 68.404 47.5238C68.404 47.4306 68.434 47.3473 68.4972 47.2774C68.5605 47.2074 68.6338 47.1708 68.7237 47.1708C68.8169 47.1708 68.9601 47.2407 69.15 47.3773C69.3398 47.5138 69.4996 47.5837 69.6295 47.5837C70.1124 47.5837 70.3521 47.1508 70.3521 46.2883V41.5829C70.3521 41.2199 70.3255 40.9868 70.2722 40.8869C70.1823 40.7171 69.9725 40.6305 69.6362 40.6305H69.5396V40.464H71.7708V40.6305C71.4944 40.6372 71.3112 40.6838 71.2213 40.777C71.1314 40.8669 71.0848 41.0334 71.0848 41.2732" fill="white"/>
<path d="M72.7032 43.481H74.5114C74.4648 43.1947 74.3616 42.9616 74.1984 42.7884C74.0352 42.6152 73.8487 42.5286 73.6389 42.5286C73.1761 42.5286 72.863 42.845 72.7032 43.481ZM75.2507 43.7108H72.6765C72.6532 43.8873 72.6399 44.0105 72.6399 44.0805C72.6399 44.5267 72.7731 44.893 73.0428 45.1827C73.3093 45.4691 73.6223 45.6156 73.9819 45.6156C74.4049 45.6156 74.7778 45.4258 75.1009 45.0429L75.1974 45.1494C74.7146 45.7555 74.1917 46.0585 73.6289 46.0585C73.196 46.0585 72.8297 45.8854 72.5367 45.539C72.2436 45.1927 72.0971 44.7631 72.0971 44.2536C72.0971 43.7441 72.2469 43.3212 72.5467 42.9582C72.8697 42.5653 73.2859 42.3688 73.7988 42.3688C74.1518 42.3688 74.4315 42.4454 74.6346 42.5986C74.7745 42.7051 74.9011 42.8683 75.0143 43.0914C75.1308 43.3312 75.2108 43.4744 75.254 43.5143V43.7175L75.2507 43.7108Z" fill="white"/>
<path d="M75.9667 45.0595C76.02 45.3193 76.1232 45.5191 76.2764 45.6689C76.4296 45.8154 76.6061 45.8887 76.8059 45.8887C76.9824 45.8887 77.1322 45.8321 77.2521 45.7155C77.372 45.599 77.4319 45.4658 77.4319 45.3059C77.4319 45.1361 77.3387 44.9563 77.1489 44.7698C77.0024 44.6233 76.7992 44.4634 76.5395 44.2936C76.2797 44.1238 76.1099 43.9939 76.03 43.904C75.8968 43.7508 75.8268 43.5676 75.8268 43.3478C75.8268 43.0548 75.9301 42.815 76.1399 42.6352C76.3497 42.452 76.6194 42.3621 76.9557 42.3621C77.1922 42.3621 77.4253 42.4088 77.6617 42.502L77.6784 43.3046H77.5285C77.4985 43.0814 77.4186 42.9049 77.2854 42.7717C77.1522 42.6385 76.999 42.5753 76.8225 42.5753C76.676 42.5753 76.5495 42.6219 76.4429 42.7151C76.3363 42.8084 76.2831 42.9249 76.2831 43.0681C76.2831 43.2812 76.4229 43.4844 76.706 43.6842C76.9691 43.8673 77.2355 44.0505 77.4986 44.2303C77.7816 44.4701 77.9215 44.7431 77.9215 45.0495C77.9215 45.3392 77.8182 45.5757 77.6084 45.7688C77.3986 45.9586 77.1389 46.0552 76.8292 46.0552C76.736 46.0552 76.6194 46.0352 76.4862 45.9986C76.353 45.962 76.2564 45.942 76.2031 45.942C76.1499 45.942 76.0999 45.9786 76.0533 46.0552H75.9201L75.8235 45.0595H75.9667Z" fill="white"/>
<path d="M82.5903 45.6922L81.4081 46.0519V45.3459C80.7554 45.8154 80.2559 46.0519 79.9096 46.0519C79.6698 46.0519 79.4567 45.9753 79.2735 45.8221C79.0737 45.6556 78.9738 45.4358 78.9738 45.1528V43.1947C78.9738 43.0015 78.8939 42.8816 78.7341 42.8317L78.4243 42.7451V42.6119L79.5632 42.3655V44.8331C79.5632 45.0928 79.6465 45.2926 79.8097 45.4325C79.9562 45.5624 80.1394 45.6256 80.3558 45.6256C80.6689 45.6256 81.0152 45.4658 81.4048 45.1394V43.2446C81.4048 43.0848 81.3882 42.9749 81.3515 42.9149C81.3149 42.855 81.225 42.8084 81.0785 42.7784L80.6389 42.6985V42.5753L81.9976 42.3621V45.3326C81.9976 45.4958 82.0642 45.5823 82.2007 45.589C82.2473 45.589 82.3173 45.579 82.4038 45.5624L82.5903 45.5257V45.6922Z" fill="white"/>
<path d="M83.223 45.0595C83.2763 45.3193 83.3796 45.5191 83.5327 45.6689C83.6859 45.8154 83.8624 45.8887 84.0622 45.8887C84.2387 45.8887 84.3886 45.8321 84.5085 45.7155C84.6283 45.599 84.6883 45.4658 84.6883 45.3059C84.6883 45.1361 84.595 44.9563 84.4052 44.7698C84.2587 44.6233 84.0556 44.4634 83.7958 44.2936C83.5361 44.1238 83.3662 43.9939 83.2863 43.904C83.1531 43.7508 83.0832 43.5676 83.0832 43.3478C83.0832 43.0548 83.1864 42.815 83.3962 42.6352C83.606 42.452 83.8757 42.3621 84.2121 42.3621C84.4485 42.3621 84.6816 42.4088 84.9181 42.502L84.9347 43.3046H84.7849C84.7549 43.0814 84.675 42.9049 84.5418 42.7717C84.4086 42.6385 84.2554 42.5753 84.0789 42.5753C83.9324 42.5753 83.8058 42.6219 83.6992 42.7151C83.5927 42.8084 83.5394 42.9249 83.5394 43.0681C83.5394 43.2812 83.6793 43.4844 83.9623 43.6842C84.2254 43.8673 84.4918 44.0505 84.7549 44.2303C85.038 44.4701 85.1778 44.7431 85.1778 45.0495C85.1778 45.3392 85.0746 45.5757 84.8648 45.7688C84.655 45.9586 84.3952 46.0552 84.0855 46.0552C83.9923 46.0552 83.8757 46.0352 83.7425 45.9986C83.6093 45.962 83.5128 45.942 83.4595 45.942C83.4062 45.942 83.3562 45.9786 83.3096 46.0552H83.1764L83.0798 45.0595H83.223Z" fill="white"/>
<path d="M85.301 42.159L85.2378 41.9992C85.6907 41.7361 85.9171 41.4397 85.9171 41.1167C85.9171 40.9935 85.8772 40.9302 85.7939 40.9302C85.7706 40.9302 85.7373 40.9335 85.6973 40.9435C85.6574 40.9535 85.6174 40.9568 85.5841 40.9568C85.4709 40.9568 85.3776 40.9169 85.301 40.8403C85.2245 40.7637 85.1845 40.6705 85.1845 40.5572C85.1845 40.4407 85.2311 40.3374 85.3244 40.2542C85.4176 40.1709 85.5308 40.1277 85.6607 40.1277C85.8372 40.1277 85.9837 40.1976 86.1003 40.3341C86.2168 40.4706 86.2768 40.6471 86.2768 40.8603C86.2768 41.1367 86.1869 41.3931 86.0037 41.6329C85.8206 41.8726 85.5874 42.0458 85.2977 42.159" fill="white"/>
<path d="M4.85865 23.2407C6.27395 21.6756 8.18544 20.8863 10.5731 20.8863C12.1383 20.8863 13.5036 21.2993 14.6725 22.1052C15.8414 22.9277 16.6806 23.9967 17.1601 25.3653H17.7196L17.4565 21.1661H17.0269C16.9437 21.2826 16.7638 21.3293 16.5007 21.3459C16.4175 21.3293 15.7581 21.1494 14.476 20.7698C13.2073 20.3735 11.8586 20.177 10.41 20.177C7.37955 20.177 4.89195 21.0828 2.95049 22.911C0.989046 24.706 0 27.0104 0 29.8277C0 32.6449 0.955745 34.7329 2.8639 36.4812C4.75874 38.2095 7.16309 39.082 10.1102 39.082C11.2458 39.082 12.4147 38.9321 13.6335 38.6691C14.8523 38.3893 15.6416 38.2561 16.0379 38.2728C16.2343 38.2728 16.4508 38.2728 16.6473 38.2894C16.9936 37.7466 17.3066 37.1705 17.5864 36.5611C17.9327 35.7885 18.2457 34.946 18.4922 34.0735H17.9494C17.8328 34.2867 17.7196 34.4865 17.5864 34.6996C15.9879 37.1372 13.7667 38.356 10.8828 38.356C8.65831 38.356 6.7335 37.5002 5.13505 35.7552C3.53659 34.0269 2.7307 31.8524 2.7307 29.2682C2.7307 26.684 3.44001 24.7892 4.85532 23.2407" fill="white"/>
<path d="M60.0088 28.3458C60.9146 28.3458 61.7371 28.742 62.4464 29.5313C63.3189 30.5037 63.7652 31.869 63.7652 33.614C63.7652 34.7995 63.4521 35.8218 62.7928 36.6444C62.1334 37.4835 61.3275 37.8965 60.3718 37.8965C59.2528 37.8965 58.1173 37.387 56.9451 36.3646V29.7444C58.0473 28.8053 59.0697 28.3458 60.0088 28.3458ZM54.2277 28.9385C54.7538 29.0884 55.0003 29.3981 55.0003 29.8943V42.6552C55.0003 42.8683 55.0003 43.0681 54.9836 43.2313H55.0003V43.8074H54.9836C54.917 44.3335 54.7871 44.7132 54.5707 44.9263C54.3076 45.2227 53.8114 45.3559 53.0721 45.3559H52.7758V45.9486H59.5925V45.3559H58.8832C58.2738 45.3559 57.8142 45.2393 57.4845 44.9763C57.1715 44.6965 57.0083 44.3002 56.9584 43.8074V42.6552H56.9417V38.2262C57.1216 38.2928 57.3047 38.3594 57.4845 38.4226C58.2904 38.6857 58.9997 38.8023 59.5759 38.8189C60.3651 38.8023 61.0911 38.6691 61.7837 38.3893C62.5397 38.0596 63.2323 37.5668 63.875 36.8908C65.0939 35.5721 65.7033 34.0569 65.7033 32.3119C65.7033 30.88 65.2737 29.6278 64.4179 28.5589C63.5454 27.4566 62.5397 26.9271 61.4207 26.9271C60.3018 26.9271 58.77 27.6364 56.9417 29.0351V26.3177H56.2824L53.2686 28.1626V28.7054L54.2244 28.9352L54.2277 28.9385Z" fill="white"/>
<path d="M51.86 31.193C51.86 28.2958 50.9042 26.8272 48.9628 26.8472C48.0237 26.8472 46.312 27.6198 43.8577 29.1683C43.5447 27.6198 42.6222 26.8472 41.107 26.8472C40.7607 26.8306 40.381 26.8805 39.9881 26.9971C38.8858 27.2935 37.5338 28.0161 35.952 29.1716V26.8506H35.5224L32.0324 28.0527V28.5456L33.168 28.6788C33.5476 28.7454 33.8107 28.9086 33.9273 29.1716C33.9939 29.3515 34.0272 29.6645 34.0272 30.1773V35.8418C34.0272 36.6144 33.8773 37.2105 33.5976 37.5535C33.3012 37.8998 32.7417 38.063 31.9525 38.063V38.6224H37.98V38.063C37.1908 38.063 36.678 37.9797 36.4315 37.7999C36.1018 37.5535 35.9553 37.0606 35.9553 36.2681V29.6645C37.6503 28.5456 38.9358 28.0028 39.8249 28.0028H39.9914C40.5009 28.0361 40.9472 28.2159 41.2935 28.5456C41.7531 29.0051 41.9862 29.6478 41.9862 30.4737V35.8418C41.9695 36.6643 41.8063 37.2404 41.4767 37.5701C41.1803 37.8665 40.6874 38.0297 39.9948 38.063H39.765V38.6224H45.7259V38.063C45.0166 38.063 44.5404 37.9464 44.2939 37.7C44.0475 37.4702 43.9143 36.974 43.9143 36.2681V29.6145C45.5594 28.5289 46.8448 27.9994 47.7673 27.9994C49.2159 27.9828 49.9252 29.085 49.9252 31.2929V33.5474C49.9252 35.985 49.792 37.3337 49.5122 37.6301C49.2159 37.9098 48.7063 38.0563 47.997 38.0563H47.734V38.6158H54.2377V38.0563H53.2986C52.2429 38.0563 51.7501 37.6134 51.7834 36.7576C51.85 35.1758 51.8666 33.3143 51.8666 31.193" fill="white"/>
<path d="M28.326 29.3348C29.1985 30.537 29.6447 31.9689 29.6614 33.6473C29.6614 35.016 29.2485 36.1515 28.4759 37.0573C27.7666 37.8632 26.944 38.2761 26.0049 38.2761C24.7528 38.2761 23.6838 37.6834 22.8247 36.4812C21.9522 35.2457 21.5059 33.7472 21.5226 31.9856C21.5059 30.7668 21.8689 29.7144 22.6248 28.842C23.3508 27.9528 24.2233 27.5232 25.1924 27.5232C26.3945 27.5232 27.4502 28.1326 28.3227 29.3348M30.0177 28.5922C28.8155 27.4067 27.3503 26.8306 25.6053 26.8472C23.9569 26.8306 22.5249 27.3567 21.3228 28.4124C20.004 29.5646 19.348 31.0798 19.348 32.9746C19.3314 34.6696 19.9408 36.0882 21.1596 37.2571C22.3618 38.3927 23.877 38.9688 25.6886 38.9688C27.4002 38.9688 28.8355 38.3927 30.0377 37.2238C31.2232 36.0383 31.816 34.623 31.8326 32.9247C31.816 31.1797 31.2232 29.7477 30.021 28.5955" fill="white"/>
<path d="M126.658 38.6191V38.0597H126.032C124.929 38.0597 124.387 37.68 124.417 36.9074C124.45 36.298 124.5 35.672 124.533 35.0792C124.616 34.0269 124.65 32.7415 124.65 31.193C124.65 28.3125 123.627 26.8805 121.553 26.8805C120.91 26.8805 120.154 27.1103 119.278 27.5565C118.769 27.7863 117.863 28.2958 116.561 29.1217V26.8839H116.118L112.775 28.086V28.5622L113.78 28.7587C114.193 28.8253 114.44 28.9885 114.553 29.2515C114.603 29.3681 114.636 29.6811 114.636 30.174V36.2514C114.636 37.4702 113.993 38.063 112.708 38.063V38.6224H118.506V38.063C117.716 38.063 117.207 37.9298 116.957 37.6667C116.694 37.4203 116.561 36.8941 116.561 36.0849V29.8443C118.356 28.6088 119.641 27.9994 120.43 27.9994C121.946 27.9994 122.702 29.0051 122.702 31.0298C122.702 34.9493 122.522 37.0906 122.142 37.4835C121.763 37.8632 121.203 38.043 120.447 38.0597V38.6191H126.658Z" fill="white"/>
<path d="M105.988 27.5232C107.19 27.5232 108.229 28.1326 109.118 29.3348C109.991 30.537 110.42 31.9689 110.437 33.6473C110.42 35.016 110.04 36.1515 109.251 37.0573C108.525 37.8632 107.703 38.2761 106.797 38.2761C105.545 38.2761 104.476 37.6834 103.62 36.4812C102.747 35.2457 102.318 33.7472 102.318 31.9856C102.318 30.7668 102.681 29.7144 103.437 28.842C104.163 27.9528 105.035 27.5232 105.991 27.5232M110.98 28.7421C110.93 28.6921 110.88 28.6422 110.833 28.5922C109.631 27.4067 108.149 26.8306 106.404 26.8472C104.742 26.8306 103.324 27.3567 102.138 28.4124C100.803 29.5646 100.13 31.0798 100.13 32.9746C100.13 34.6696 100.739 36.0882 101.975 37.2571C102.468 37.7333 103.031 38.0963 103.64 38.3927C104.496 38.7723 105.452 38.9688 106.487 38.9688C106.817 38.9688 107.113 38.9521 107.41 38.9188C108.728 38.739 109.864 38.1629 110.836 37.2238C110.886 37.1572 110.936 37.1073 110.983 37.0573C112.068 35.9051 112.598 34.5397 112.598 32.9247C112.615 31.2629 112.072 29.8776 110.983 28.7421" fill="white"/>
<path d="M98.1187 26.6974H97.6757L93.936 27.9994V28.4423L95.2881 28.7054C95.7143 28.7887 95.9974 28.9352 96.1106 29.165C96.1605 29.3148 96.1772 29.6412 96.1772 30.1374V35.9484C96.1772 36.721 95.9974 37.2671 95.651 37.5801C95.2881 37.9098 94.6786 38.0563 93.8061 38.0563V38.6158H100.213V38.0563C98.8146 38.0563 98.122 37.4969 98.122 36.4079V26.694L98.1187 26.6974Z" fill="white"/>
<path d="M92.0579 29.9409L91.9913 27.2901C91.2187 26.9938 90.4427 26.8306 89.6702 26.8472C88.5679 26.8306 87.6788 27.127 87.0194 27.7364C86.3101 28.3125 85.9671 29.1017 85.9671 30.0741C85.9837 30.7834 86.1968 31.3928 86.6431 31.8857C86.9228 32.182 87.4656 32.6116 88.3215 33.1711C89.1607 33.7305 89.8367 34.2567 90.3129 34.7529C90.9223 35.3623 91.2353 35.955 91.2353 36.4978C91.2353 37.0407 91.0388 37.4869 90.6426 37.8665C90.3462 38.1462 90.0165 38.3094 89.6535 38.3927C89.507 38.4093 89.3571 38.426 89.194 38.426C89.0308 38.426 88.8643 38.4093 88.7344 38.3927C88.2582 38.2928 87.8453 38.063 87.4656 37.7C86.9561 37.2238 86.6098 36.5478 86.4433 35.692H85.9671L86.3134 38.9688H86.7263C86.8928 38.7057 87.0394 38.5725 87.2025 38.5891C87.399 38.5891 87.7121 38.6557 88.1583 38.769C88.6045 38.9022 88.9642 38.9688 89.2772 38.9688C90.0831 38.9688 90.7591 38.769 91.3852 38.3927C91.5317 38.2761 91.6816 38.1629 91.8281 38.0297C92.5207 37.387 92.8671 36.5977 92.8671 35.6587C92.8671 34.6696 92.4075 33.7638 91.4851 32.9746C90.6292 32.3652 89.7401 31.7724 88.8676 31.163C87.9618 30.537 87.5023 29.8643 87.5023 29.1716C87.5023 28.6954 87.6654 28.2991 88.0284 28.0028C88.3748 27.6731 88.7843 27.5266 89.2639 27.5266C89.84 27.5266 90.3329 27.7397 90.7624 28.1693C91.1754 28.6155 91.4551 29.2083 91.5683 29.9475H92.0612L92.0579 29.9409Z" fill="white"/>
<path d="M83.8724 29.9409L83.7891 27.2901C83.0299 26.9938 82.2573 26.8306 81.4847 26.8472C80.3991 26.8306 79.5099 27.127 78.8173 27.7364C78.1413 28.3125 77.7949 29.1017 77.7949 30.0741C77.7949 30.7834 78.008 31.3928 78.4543 31.8857C78.7174 32.182 79.2768 32.6116 80.1493 33.1711C80.9885 33.7305 81.6479 34.2567 82.1241 34.7529C82.7501 35.3623 83.0632 35.955 83.0632 36.4978C83.0632 37.0407 82.8667 37.4869 82.4704 37.8665C82.174 38.1462 81.8443 38.3094 81.4647 38.3927C81.3149 38.4093 81.1683 38.426 80.9885 38.426C80.842 38.426 80.6921 38.4093 80.5423 38.3927C80.0661 38.2928 79.6365 38.063 79.2735 37.7C78.764 37.2238 78.4343 36.5478 78.2678 35.692H77.7916L78.1046 38.9688H78.5176C78.6841 38.7057 78.8639 38.5725 79.0271 38.5891C79.2069 38.5891 79.5199 38.6557 79.9828 38.769C80.4124 38.9022 80.7887 38.9688 81.1017 38.9688C81.891 38.9688 82.5836 38.769 83.193 38.3927C83.3562 38.2761 83.5227 38.1629 83.6526 38.0297C84.3286 37.387 84.6749 36.5977 84.6749 35.6587C84.6749 34.6696 84.2154 33.7638 83.2929 32.9746C82.4205 32.3652 81.548 31.7724 80.6755 31.163C79.753 30.537 79.3068 29.8643 79.3068 29.1716C79.3068 28.6954 79.4733 28.2991 79.8163 28.0028C80.1626 27.6731 80.5756 27.5266 81.0684 27.5266C81.6445 27.5266 82.1374 27.7397 82.567 28.1693C82.9966 28.6155 83.2597 29.2083 83.3562 29.9475H83.8657L83.8724 29.9409Z" fill="white"/>
<path d="M71.0448 34.0269C71.7541 33.7472 72.3136 33.4841 72.7232 33.2377V36.6777C71.5044 37.5335 70.7151 37.9631 70.3022 37.9631C69.8426 37.9631 69.4463 37.7966 69.1167 37.4869C68.7537 37.1572 68.5905 36.7443 68.5905 36.2514C68.5905 35.692 68.7703 35.2624 69.15 34.966C69.413 34.7529 70.0558 34.4398 71.0448 34.0269ZM75.4106 37.5835C75.0643 37.5835 74.8511 37.4036 74.7679 37.0573C74.7013 36.7443 74.668 35.9883 74.668 34.7529V30.8666C74.668 29.6145 74.5181 28.7753 74.2417 28.3624C73.4991 27.3434 72.4801 26.8306 71.1947 26.8472C70.3055 26.8306 69.3664 27.2435 68.3774 28.0827C67.405 28.9219 66.9288 29.6312 66.9288 30.2073C66.9288 30.3072 66.9454 30.4204 67.012 30.6036L68.9868 29.6478C68.8702 29.4181 68.8236 29.2349 68.8236 29.105C68.8236 28.7587 69.0034 28.4457 69.3664 28.116C69.7294 27.8196 70.139 27.6564 70.6185 27.6731C71.2446 27.6564 71.7708 27.9362 72.2303 28.4956C72.5434 28.8919 72.7232 29.518 72.7232 30.3571V32.6616C71.8673 33.1711 71.0115 33.5507 70.169 33.7638C69.0501 34.0269 68.2575 34.3399 67.748 34.6863C67.072 35.1458 66.7423 35.7885 66.7423 36.5778C66.7423 37.3037 66.9887 37.8798 67.4516 38.3227C67.4849 38.3394 67.5182 38.356 67.5349 38.3893C68.0111 38.769 68.6371 38.9654 69.413 38.9654C69.8726 38.9654 70.2855 38.8655 70.6485 38.7024C70.8283 38.6191 71.0115 38.5059 71.2246 38.3893C71.6542 38.093 72.1637 37.6967 72.7731 37.2038C72.8231 37.6967 72.903 38.093 73.0695 38.3893C73.2993 38.769 73.6456 38.9654 74.1085 38.9654C74.4881 38.9654 74.9976 38.769 75.6237 38.3893C76.0366 38.1263 76.4796 37.7966 76.9891 37.3836L76.8392 36.9374C76.3297 37.367 75.8502 37.5635 75.4073 37.5801" fill="white"/>
<path d="M26.2247 21.0495V22.9144C26.2847 22.9211 26.4046 22.9244 26.5777 22.9244C27.277 22.9244 27.6267 22.608 27.6267 21.9753C27.6267 21.3426 27.2537 21.0362 26.5078 21.0362C26.3846 21.0362 26.2913 21.0395 26.2214 21.0462M26.2214 23.0309V23.9867C26.2214 24.1532 26.2547 24.2664 26.3246 24.323C26.3912 24.383 26.5111 24.4096 26.6776 24.4096H26.8075V24.5195H25.1957V24.4096H25.2923C25.4621 24.4096 25.582 24.3763 25.6486 24.313C25.7152 24.2498 25.7485 24.1232 25.7485 23.9367V21.5357C25.7485 21.3626 25.7185 21.2427 25.6586 21.1761C25.5987 21.1128 25.4854 21.0795 25.3189 21.0795H25.1924V20.9696C25.1924 20.9696 25.4421 20.9596 25.9117 20.9396C26.1481 20.9297 26.3879 20.923 26.631 20.923C27.1372 20.923 27.5235 21.0196 27.7866 21.2127C28.033 21.3925 28.1562 21.6323 28.1562 21.9353C28.1562 22.1485 28.0863 22.3383 27.9497 22.5048C27.8132 22.6713 27.6267 22.7878 27.3969 22.8578C27.5701 22.9943 27.7899 23.1908 28.0463 23.4505L28.4959 23.9001C28.8522 24.2564 29.2285 24.4496 29.6181 24.4762V24.5794C29.5315 24.5828 29.4483 24.5861 29.3717 24.5861C29.002 24.5861 28.709 24.5328 28.4892 24.4229C28.3294 24.3397 28.1196 24.1665 27.8565 23.9068L27.4802 23.5338C27.2471 23.304 27.0539 23.1342 26.8941 23.0309H26.2147H26.2214Z" fill="white"/>
<path d="M29.7679 22.9244H30.9368C30.9068 22.7379 30.8402 22.588 30.7337 22.4781C30.6304 22.3649 30.5072 22.3083 30.3707 22.3083C30.071 22.3083 29.8678 22.5148 29.7679 22.9244ZM31.4163 23.0742H29.7513C29.7346 23.1875 29.728 23.2674 29.728 23.314C29.728 23.6037 29.8146 23.8402 29.9877 24.0266C30.1609 24.2131 30.364 24.3064 30.5938 24.3064C30.8669 24.3064 31.11 24.1831 31.3198 23.9367L31.383 24.0067C31.07 24.3963 30.7337 24.5928 30.3674 24.5928C30.0876 24.5928 29.8512 24.4795 29.6614 24.2564C29.4715 24.0333 29.375 23.7536 29.375 23.4239C29.375 23.0942 29.4715 22.8211 29.6647 22.5847C29.8745 22.3316 30.1442 22.2017 30.4739 22.2017C30.7004 22.2017 30.8835 22.2517 31.0167 22.3516C31.1066 22.4182 31.1899 22.5248 31.2632 22.6713C31.3397 22.8278 31.3897 22.9177 31.4163 22.9444V23.0742Z" fill="white"/>
<path d="M32.502 20.6899V24.0699C32.502 24.2964 32.6119 24.4129 32.8317 24.4129H32.9283V24.5228H31.6462V24.4129C31.826 24.4129 31.9492 24.3863 32.0158 24.3263C32.0857 24.2697 32.119 24.1698 32.119 24.03V21.276C32.119 21.1927 32.1091 21.1361 32.0891 21.1061C32.0691 21.0762 32.0191 21.0562 31.9426 21.0495L31.6861 21.0229V20.9263L32.4154 20.6932H32.502V20.6899Z" fill="white"/>
<path d="M33.4211 22.9244H34.59C34.56 22.7379 34.4934 22.588 34.3869 22.4781C34.2836 22.3649 34.1604 22.3083 34.0239 22.3083C33.7242 22.3083 33.521 22.5148 33.4178 22.9244M35.0662 23.0742H33.4011C33.3845 23.1875 33.3778 23.2674 33.3778 23.314C33.3778 23.6037 33.4644 23.8402 33.6376 24.0266C33.8108 24.2131 34.0139 24.3064 34.2437 24.3064C34.5167 24.3064 34.7598 24.1831 34.9696 23.9367L35.0329 24.0067C34.7199 24.3963 34.3835 24.5928 34.0172 24.5928C33.7375 24.5928 33.5011 24.4795 33.3112 24.2564C33.1214 24.0333 33.0248 23.7536 33.0248 23.4239C33.0248 23.0942 33.1214 22.8211 33.3146 22.5847C33.5244 22.3316 33.7941 22.2017 34.1238 22.2017C34.3502 22.2017 34.5334 22.2517 34.6666 22.3516C34.7565 22.4182 34.8398 22.5248 34.913 22.6713C34.9896 22.8278 35.0396 22.9177 35.0662 22.9444V23.0742Z" fill="white"/>
<path d="M36.6446 24.1399V23.4605C36.5614 23.5105 36.4481 23.5638 36.3083 23.6204C36.1151 23.7003 35.9919 23.7602 35.9386 23.8035C35.8654 23.8601 35.8287 23.9434 35.8287 24.0533C35.8287 24.1532 35.862 24.2331 35.9286 24.2964C35.9952 24.3596 36.0752 24.3896 36.1651 24.3896C36.245 24.3896 36.4048 24.3064 36.6446 24.1399ZM35.902 22.7545L35.5157 22.9444C35.5057 22.9111 35.4991 22.8844 35.4991 22.8644C35.4991 22.7545 35.5956 22.618 35.7888 22.4515C35.9819 22.285 36.1684 22.2051 36.3416 22.2051C36.598 22.2051 36.7945 22.305 36.941 22.5081C36.9976 22.588 37.0276 22.7512 37.0276 22.9976V23.7602C37.0276 24.0033 37.0342 24.1532 37.0442 24.2098C37.0642 24.2831 37.1075 24.3197 37.1741 24.3197C37.2607 24.3197 37.3539 24.2764 37.4538 24.1931L37.4838 24.2797C37.2274 24.4895 37.0409 24.5928 36.9177 24.5928C36.7578 24.5928 36.6713 24.4762 36.6546 24.2431C36.4714 24.3896 36.3316 24.4895 36.2317 24.5395C36.1584 24.5728 36.0785 24.5894 35.9919 24.5894C35.8287 24.5894 35.6989 24.5461 35.6056 24.4595C35.509 24.373 35.4624 24.2597 35.4624 24.1199C35.4624 23.96 35.529 23.8335 35.6622 23.7436C35.7621 23.677 35.9186 23.6137 36.1351 23.5604C36.3016 23.5171 36.4714 23.4472 36.6413 23.344V22.8944C36.6413 22.7279 36.608 22.6047 36.5447 22.5281C36.4548 22.4182 36.3482 22.3616 36.2283 22.3616C36.1384 22.3616 36.0552 22.3916 35.9852 22.4515C35.9153 22.5114 35.8787 22.5747 35.8787 22.6413C35.8787 22.6713 35.8853 22.7079 35.902 22.7512" fill="white"/>
<path d="M37.8135 23.9467H37.9034C37.9367 24.1132 38.0033 24.2464 38.1032 24.3397C38.2031 24.4362 38.3163 24.4829 38.4462 24.4829C38.5594 24.4829 38.656 24.4462 38.7326 24.373C38.8092 24.2997 38.8492 24.2098 38.8492 24.1066C38.8492 23.9967 38.7892 23.8801 38.666 23.7569C38.5728 23.6603 38.4396 23.5604 38.273 23.4505C38.1065 23.3406 37.9967 23.2574 37.9434 23.2008C37.8568 23.1009 37.8135 22.981 37.8135 22.8411C37.8135 22.6513 37.8801 22.4981 38.0166 22.3782C38.1498 22.2617 38.3263 22.2017 38.5428 22.2017C38.696 22.2017 38.8458 22.2317 38.999 22.2917L39.009 22.8111H38.9124C38.8925 22.668 38.8425 22.5514 38.7559 22.4648C38.6693 22.3782 38.5694 22.3349 38.4562 22.3349C38.3596 22.3349 38.2797 22.3649 38.2098 22.4249C38.1432 22.4848 38.1065 22.5614 38.1065 22.6513C38.1065 22.7878 38.1965 22.921 38.3796 23.0509C38.5495 23.1675 38.7226 23.2874 38.8925 23.4039C39.0756 23.5604 39.1655 23.7369 39.1655 23.9334C39.1655 24.1199 39.0989 24.2731 38.9624 24.3996C38.8259 24.5228 38.6593 24.5861 38.4562 24.5861C38.3963 24.5861 38.323 24.5728 38.2331 24.5495C38.1465 24.5262 38.0832 24.5128 38.0499 24.5128C38.0166 24.5128 37.9833 24.5361 37.9534 24.5861H37.8668L37.8035 23.9401L37.8135 23.9467Z" fill="white"/>
<path d="M39.9581 21.1061C39.9581 21.0462 39.9814 20.9929 40.028 20.953C40.0746 20.9097 40.1346 20.8897 40.2012 20.8897C40.2678 20.8897 40.3277 20.9097 40.3777 20.953C40.4276 20.9962 40.4509 21.0462 40.4509 21.1061C40.4509 21.1661 40.4243 21.2194 40.3777 21.2593C40.3277 21.3026 40.2678 21.3226 40.2012 21.3226C40.1346 21.3226 40.0746 21.3026 40.028 21.2593C39.9814 21.216 39.9581 21.1661 39.9581 21.1061ZM40.4376 22.1718V24.0866C40.4376 24.303 40.5742 24.4129 40.8472 24.4129V24.5228H39.5818V24.4129C39.7583 24.4129 39.8782 24.383 39.9481 24.3197C40.018 24.2564 40.0547 24.1498 40.0547 23.9967V22.8511C40.0547 22.7512 40.048 22.6913 40.038 22.6613C40.0147 22.6147 39.9614 22.5847 39.8782 22.5714L39.6117 22.5214V22.4315L40.3544 22.1751H40.4409L40.4376 22.1718Z" fill="white"/>
<path d="M41.8696 22.7945V24.0266C41.8696 24.1832 41.8929 24.2864 41.9429 24.3363C41.9928 24.3863 42.0961 24.4129 42.2493 24.4129V24.5228H41.1037V24.4129C41.3601 24.4129 41.4867 24.2931 41.4867 24.0533V22.8578C41.4867 22.7612 41.48 22.7013 41.47 22.6746C41.4467 22.6247 41.3967 22.5947 41.3168 22.5781L41.1237 22.5381V22.4482L41.7797 22.2084H41.8696V22.6546C42.1294 22.4915 42.3059 22.3916 42.3991 22.3449C42.5723 22.255 42.7255 22.2084 42.8487 22.2084C43.255 22.2084 43.4581 22.4915 43.4581 23.0609C43.4581 23.364 43.4514 23.617 43.4348 23.8235C43.4281 23.9434 43.4215 24.0666 43.4115 24.1865C43.4081 24.3397 43.5147 24.4129 43.7312 24.4129H43.8577V24.5228H42.6322V24.4129C42.7788 24.4096 42.892 24.3696 42.9652 24.2964C43.0385 24.2231 43.0751 23.8002 43.0751 23.0276C43.0751 22.6313 42.9253 22.4315 42.6256 22.4315C42.469 22.4315 42.216 22.5514 41.8663 22.7945" fill="white"/>
<path d="M44.4804 25.1222C44.4804 25.2621 44.5637 25.392 44.7335 25.5119C44.9033 25.6318 45.0998 25.6917 45.3229 25.6917C45.566 25.6917 45.7825 25.6251 45.9756 25.4852C46.1688 25.3487 46.262 25.1922 46.262 25.0124C46.262 24.8125 46.1355 24.6993 45.8791 24.676C45.5893 24.6694 45.2463 24.6527 44.8467 24.6294C44.7668 24.706 44.6869 24.7826 44.6003 24.8625C44.517 24.9424 44.4738 25.029 44.4738 25.1189M45.7558 23.0776C45.7558 22.8378 45.7026 22.6513 45.5893 22.5115C45.4794 22.3749 45.3363 22.305 45.1564 22.305C45.0166 22.305 44.8967 22.3483 44.7968 22.4315C44.6669 22.5448 44.6036 22.7212 44.6036 22.9577C44.6036 23.1542 44.6502 23.3273 44.7468 23.4772C44.8567 23.657 45.0099 23.7436 45.2097 23.7436C45.3729 23.7436 45.5061 23.6836 45.606 23.5571C45.7059 23.4339 45.7558 23.274 45.7558 23.0742M46.6117 22.3683V22.7279C46.4019 22.7113 46.2121 22.6913 46.0422 22.658C46.1055 22.7745 46.1388 22.8977 46.1388 23.0243C46.1388 23.2474 46.0522 23.4372 45.8757 23.5937C45.6892 23.7636 45.4428 23.8501 45.1398 23.8501C45.0565 23.8501 44.9699 23.8368 44.8767 23.8035C44.86 23.8202 44.7934 23.8635 44.6702 23.9334C44.5737 23.99 44.527 24.0433 44.527 24.0932C44.527 24.2265 44.8001 24.2964 45.3429 24.2997C45.6759 24.303 45.909 24.3164 46.0389 24.3397C46.1821 24.3663 46.2987 24.4229 46.3819 24.5062C46.4951 24.6194 46.5517 24.7526 46.5517 24.9058C46.5517 25.1256 46.4252 25.3287 46.1688 25.5152C45.8691 25.735 45.4761 25.8449 44.9933 25.8449C44.7135 25.8449 44.4904 25.7883 44.3306 25.6784C44.1874 25.5785 44.1141 25.4553 44.1141 25.3021C44.1141 25.1722 44.1807 25.0556 44.3206 24.9491C44.5437 24.7726 44.6802 24.6594 44.7235 24.5994C44.5703 24.5861 44.4438 24.5361 44.3372 24.4562C44.234 24.3763 44.1807 24.2897 44.1807 24.1932C44.1807 24.0899 44.254 24.0033 44.3972 23.9367C44.6336 23.8335 44.7535 23.7802 44.7635 23.7702C44.3972 23.627 44.2173 23.3906 44.2173 23.0642C44.2173 22.8178 44.3139 22.6114 44.507 22.4415C44.7002 22.275 44.94 22.1918 45.2197 22.1918C45.4861 22.1918 45.6992 22.2684 45.8591 22.4182C46.0223 22.4182 46.272 22.3982 46.605 22.3616" fill="white"/>
<path d="M50.3381 23.9467L50.4247 23.9967C50.1783 24.3929 49.8419 24.5894 49.4157 24.5894C49.1026 24.5894 48.8595 24.4629 48.6797 24.2065C48.5299 23.9967 48.4566 23.7569 48.4566 23.4872C48.4566 23.1308 48.5865 22.8245 48.8429 22.5747C49.0993 22.325 49.409 22.1984 49.7687 22.1984C49.9485 22.1984 50.0984 22.2284 50.2216 22.2917C50.3448 22.3549 50.408 22.4315 50.408 22.5214C50.408 22.6347 50.3514 22.6913 50.2415 22.6913C50.1516 22.6913 50.0451 22.6347 49.9219 22.5181C49.7986 22.4015 49.6854 22.3449 49.5755 22.3449C49.379 22.3449 49.2059 22.4448 49.0594 22.648C48.9128 22.8478 48.8396 23.0875 48.8396 23.3606C48.8396 23.6337 48.9162 23.8834 49.0693 24.0699C49.2225 24.2597 49.4123 24.353 49.6455 24.353C49.9119 24.353 50.145 24.2164 50.3414 23.9434" fill="white"/>
<path d="M51.5502 22.7046V24.0733C51.5502 24.2065 51.5736 24.2964 51.6235 24.343C51.6735 24.3896 51.7734 24.4129 51.9199 24.4129V24.5195H50.781V24.4129C50.9342 24.4063 51.0341 24.3696 51.0874 24.3064C51.1406 24.2431 51.1673 24.1332 51.1673 23.9734V21.2427C51.1673 21.1295 51.1207 21.0662 51.0241 21.0529L50.7777 21.0196V20.923L51.457 20.6899H51.5469V22.5614C51.9532 22.3216 52.2662 22.2017 52.4893 22.2017C52.9123 22.2017 53.1221 22.4848 53.1221 23.0509C53.1221 23.4738 53.1121 23.8535 53.0921 24.1965C53.0988 24.2964 53.152 24.3597 53.2453 24.3896C53.2986 24.4063 53.3918 24.4129 53.525 24.4129V24.5195H52.2929V24.4129C52.4461 24.4129 52.5526 24.383 52.6126 24.323C52.6958 24.2398 52.7391 23.8402 52.7391 23.1242C52.7391 22.6646 52.5659 22.4349 52.2196 22.4349C52.0531 22.4349 51.8266 22.5248 51.5469 22.7013" fill="white"/>
<path d="M54.0912 21.1061C54.0912 21.0462 54.1145 20.9929 54.1611 20.953C54.2077 20.9097 54.2677 20.8897 54.3343 20.8897C54.4009 20.8897 54.4608 20.9097 54.5108 20.953C54.5607 20.9962 54.584 21.0462 54.584 21.1061C54.584 21.1661 54.5607 21.2194 54.5108 21.2593C54.4608 21.3026 54.4009 21.3226 54.3343 21.3226C54.2677 21.3226 54.2077 21.3026 54.1611 21.2593C54.1145 21.216 54.0912 21.1661 54.0912 21.1061ZM54.5707 22.1718V24.0866C54.5707 24.303 54.7073 24.4129 54.9803 24.4129V24.5228H53.7149V24.4129C53.888 24.4129 54.0113 24.383 54.0812 24.3197C54.1511 24.2564 54.1878 24.1498 54.1878 23.9967V22.8511C54.1878 22.7512 54.1811 22.6913 54.1711 22.6613C54.1478 22.6147 54.0945 22.5847 54.0113 22.5714L53.7448 22.5214V22.4315L54.4875 22.1751H54.574L54.5707 22.1718Z" fill="white"/>
<path d="M55.9893 20.6899V24.0699C55.9893 24.2964 56.0992 24.4129 56.319 24.4129H56.4156V24.5228H55.1335V24.4129C55.3133 24.4129 55.4365 24.3863 55.5031 24.3263C55.5731 24.2697 55.6064 24.1698 55.6064 24.03V21.276C55.6064 21.1927 55.5964 21.1361 55.5764 21.1061C55.5564 21.0762 55.5065 21.0562 55.4299 21.0495L55.1735 21.0229V20.9263L55.9028 20.6932H55.9893V20.6899Z" fill="white"/>
<path d="M58.5069 24.0599V22.7812C58.3138 22.4948 58.0873 22.3549 57.8276 22.3549C57.6078 22.3549 57.428 22.4448 57.2948 22.6213C57.1615 22.7978 57.0916 23.0243 57.0916 23.2974C57.0916 23.5704 57.1649 23.8268 57.3081 24.0366C57.4513 24.2431 57.6278 24.3463 57.8342 24.3463C58.0141 24.3463 58.2372 24.2498 58.5069 24.0599ZM58.5069 22.3083V21.2027C58.5069 21.1428 58.4836 21.0995 58.437 21.0762C58.4137 21.0662 58.3637 21.0529 58.2838 21.0429L58.094 21.0196V20.923L58.8865 20.6899V24.0366C58.8865 24.1732 58.9432 24.2431 59.0564 24.2431C59.0863 24.2431 59.123 24.2364 59.1663 24.2264L59.3028 24.1865V24.3064L58.5735 24.5928H58.5036V24.1865C58.1306 24.4562 57.8376 24.5928 57.6211 24.5928C57.368 24.5928 57.1515 24.4862 56.9751 24.2697C56.7986 24.0533 56.7086 23.7935 56.7086 23.4905C56.7086 23.1342 56.8285 22.8278 57.0683 22.578C57.3081 22.3283 57.6011 22.2017 57.9474 22.2017C58.1406 22.2017 58.3271 22.2384 58.5069 22.3116" fill="white"/>
<path d="M60.2352 23.001V24.1066C60.2352 24.2231 60.2619 24.3064 60.3151 24.3497C60.3684 24.393 60.465 24.4163 60.6049 24.4163H60.8213V24.5262H59.4693V24.4163C59.6125 24.4129 59.7124 24.3796 59.769 24.313C59.8256 24.2498 59.8522 24.1399 59.8522 23.9867V22.6713L59.4693 22.5348V22.4382L60.1187 22.2117H60.2319V22.8145H60.2419C60.3951 22.5647 60.495 22.4115 60.5482 22.3516C60.6115 22.275 60.6914 22.2384 60.7814 22.2384C60.828 22.2384 60.8912 22.255 60.9745 22.2883C61.0278 22.3017 61.1277 22.3316 61.2709 22.3749L61.1343 22.7179C61.0344 22.7079 60.9345 22.6746 60.8313 22.628C60.7514 22.5914 60.6848 22.5714 60.6315 22.5714C60.5549 22.5714 60.4816 22.6213 60.4084 22.7212C60.3285 22.8311 60.2685 22.9277 60.2252 23.0076" fill="white"/>
<path d="M61.8903 22.9244H63.0592C63.0292 22.7379 62.9626 22.588 62.856 22.4781C62.7528 22.3649 62.6296 22.3083 62.4931 22.3083C62.1933 22.3083 61.9902 22.5148 61.887 22.9244M63.5354 23.0742H61.8703C61.8537 23.1875 61.847 23.2674 61.847 23.314C61.847 23.6037 61.9336 23.8402 62.1068 24.0266C62.2799 24.2131 62.4831 24.3064 62.7128 24.3064C62.9859 24.3064 63.229 24.1831 63.4388 23.9367L63.5021 24.0067C63.189 24.3963 62.8527 24.5928 62.4864 24.5928C62.2067 24.5928 61.9702 24.4795 61.7804 24.2564C61.5906 24.0333 61.494 23.7536 61.494 23.4239C61.494 23.0942 61.5906 22.8211 61.7837 22.5847C61.9935 22.3316 62.2633 22.2017 62.593 22.2017C62.8194 22.2017 63.0026 22.2517 63.1358 22.3516C63.2257 22.4182 63.3089 22.5248 63.3822 22.6713C63.4588 22.8278 63.5087 22.9177 63.5354 22.9444V23.0742Z" fill="white"/>
<path d="M64.6377 22.7945V24.0266C64.6377 24.1832 64.661 24.2864 64.7109 24.3363C64.7609 24.3863 64.8641 24.4129 65.0173 24.4129V24.5228H63.8718V24.4129C64.1248 24.4129 64.2547 24.2931 64.2547 24.0533V22.8578C64.2547 22.7612 64.2481 22.7013 64.2381 22.6746C64.2147 22.6247 64.1648 22.5947 64.0849 22.5781L63.8917 22.5381V22.4482L64.5478 22.2084H64.6377V22.6546C64.8974 22.4915 65.0739 22.3916 65.1672 22.3449C65.3403 22.255 65.4935 22.2084 65.6167 22.2084C66.023 22.2084 66.2261 22.4915 66.2261 23.0609C66.2261 23.364 66.2195 23.617 66.2028 23.8235C66.1962 23.9434 66.1862 24.0666 66.1795 24.1865C66.1762 24.3397 66.2828 24.4129 66.4992 24.4129H66.6258V24.5228H65.4003V24.4129C65.5468 24.4096 65.66 24.3696 65.7333 24.2964C65.8066 24.2231 65.8432 23.8002 65.8432 23.0276C65.8432 22.6313 65.6933 22.4315 65.3936 22.4315C65.2371 22.4315 64.984 22.5514 64.6344 22.7945" fill="white"/>
<path d="M69.7527 22.265L69.7927 22.5148H69.1766V24.0766C69.1766 24.2065 69.2066 24.293 69.2665 24.343C69.3265 24.3896 69.4364 24.4129 69.5962 24.4129H69.8127V24.5228H68.404V24.4129C68.5705 24.4129 68.6771 24.3863 68.7237 24.3363C68.7703 24.2864 68.7936 24.1798 68.7936 24.02V22.5148H68.3707V22.4182C68.5239 22.3849 68.6638 22.3316 68.7936 22.265C68.7936 21.7788 68.9402 21.3892 69.2332 21.0962C69.503 20.8264 69.7727 20.6932 70.0424 20.6932C70.1923 20.6932 70.3288 20.7265 70.4587 20.7964C70.5719 20.8564 70.6285 20.913 70.6285 20.963C70.6285 20.9896 70.6086 21.0429 70.5686 21.1195C70.5286 21.1961 70.4987 21.236 70.4753 21.236C70.1823 21.0495 69.9592 20.9563 69.8093 20.9563C69.3864 20.9563 69.1766 21.2493 69.1766 21.8354V22.2684H69.7527V22.265Z" fill="white"/>
<path d="M72.6399 23.2174C72.6399 23.5638 72.7265 23.8568 72.8963 24.0966C73.0662 24.3363 73.2759 24.4562 73.5224 24.4562C73.7055 24.4562 73.8654 24.3763 74.0052 24.2098C74.1618 24.0366 74.2384 23.8135 74.2384 23.5438C74.2384 23.2174 74.1518 22.9344 73.9786 22.6979C73.8054 22.4615 73.599 22.3416 73.3592 22.3416C73.1694 22.3416 72.9996 22.4282 72.8564 22.6014C72.7098 22.7745 72.6366 22.981 72.6366 23.2208M72.2103 23.4139C72.2103 23.0409 72.3402 22.7412 72.6033 22.5114C72.8397 22.305 73.1194 22.2051 73.4425 22.2051C73.7888 22.2051 74.0785 22.3216 74.3149 22.5514C74.5514 22.7812 74.6679 23.0642 74.6679 23.4039C74.6679 23.7436 74.5514 24.02 74.3183 24.2498C74.0852 24.4795 73.7988 24.5961 73.4591 24.5961C73.1194 24.5961 72.8097 24.4829 72.57 24.2564C72.3302 24.03 72.2103 23.7502 72.2103 23.4139Z" fill="white"/>
<path d="M75.607 22.7612V24.0599C75.607 24.2131 75.637 24.3097 75.697 24.3563C75.7469 24.3929 75.8502 24.4129 76.0033 24.4129V24.5195H74.8178V24.4129C74.9743 24.4129 75.0809 24.3796 75.1375 24.3097C75.1941 24.2398 75.2241 24.1299 75.2241 23.9734V22.8544C75.2241 22.7579 75.2174 22.6946 75.2074 22.6613C75.1841 22.608 75.1342 22.5747 75.0609 22.5647L74.8378 22.5347V22.4382L75.5238 22.1984H75.6104V22.6546C76.04 22.3516 76.3796 22.1984 76.6261 22.1984C76.9258 22.1984 77.1056 22.3516 77.1689 22.6546C77.6551 22.3516 77.9914 22.1984 78.1779 22.1984C78.5575 22.1984 78.7474 22.4848 78.7474 23.0609C78.7474 23.4805 78.7407 23.8435 78.7307 24.1565C78.724 24.3263 78.824 24.4129 79.0338 24.4129H79.2169V24.5195H77.9348V24.4129H77.9848C78.1246 24.4129 78.2245 24.383 78.2811 24.3263C78.3378 24.2697 78.3677 24 78.3677 23.5238V23.0809C78.3677 22.648 78.2245 22.4315 77.9415 22.4315C77.7583 22.4315 77.5052 22.5381 77.1822 22.7512V24.0633C77.1822 24.2031 77.2055 24.2964 77.2521 24.3463C77.2988 24.3929 77.3953 24.4163 77.5352 24.4163V24.5228H76.3663V24.4163C76.5262 24.4163 76.6394 24.383 76.7027 24.3197C76.7659 24.2564 76.7992 24.1399 76.7992 23.9767V22.921C76.7992 22.7545 76.7526 22.628 76.6627 22.5381C76.5861 22.4648 76.4929 22.4282 76.3763 22.4282C76.2031 22.4282 75.9467 22.5381 75.6137 22.7579" fill="white"/>
<path d="M81.6679 22.7779V24.0833C81.901 24.2897 82.1241 24.393 82.3406 24.393C82.5304 24.393 82.6902 24.3097 82.8201 24.1432C82.95 23.9767 83.0133 23.7769 83.0133 23.5404C83.0133 23.1974 82.9267 22.9277 82.7502 22.7346C82.6103 22.578 82.4471 22.5015 82.2673 22.5015C82.0875 22.5015 81.8844 22.5947 81.6679 22.7812M81.6679 24.4496V25.372C81.6679 25.6184 81.7944 25.7416 82.0509 25.7416H82.1941V25.8515H80.8487V25.7416H80.9053C81.0485 25.7416 81.1484 25.7117 81.205 25.6551C81.2616 25.5951 81.2883 25.4852 81.2883 25.322V22.8078C81.2883 22.7079 81.235 22.6447 81.1284 22.618L80.9453 22.5714V22.4615L81.5547 22.0852H81.6679V22.6313C82.0342 22.3549 82.3273 22.2151 82.5504 22.2151C82.7735 22.2151 82.9666 22.3216 83.1365 22.5348C83.3063 22.7479 83.3929 22.9943 83.3929 23.2774C83.3929 23.6237 83.273 23.9267 83.0332 24.1798C82.7935 24.4362 82.5104 24.5628 82.1841 24.5628C82.0442 24.5628 81.871 24.5228 81.6646 24.4429" fill="white"/>
<path d="M84.3486 23.2174C84.3486 23.5638 84.4352 23.8568 84.605 24.0966C84.7749 24.3363 84.9847 24.4562 85.2311 24.4562C85.4143 24.4562 85.5741 24.3763 85.714 24.2098C85.8705 24.0366 85.9471 23.8135 85.9471 23.5438C85.9471 23.2174 85.8605 22.9344 85.6873 22.6979C85.5142 22.4615 85.3077 22.3416 85.0679 22.3416C84.8781 22.3416 84.7083 22.4282 84.5618 22.6014C84.4152 22.7745 84.342 22.981 84.342 23.2208M83.9157 23.4139C83.9157 23.0409 84.0456 22.7412 84.3087 22.5114C84.5451 22.305 84.8248 22.2051 85.1479 22.2051C85.4942 22.2051 85.7839 22.3216 86.0204 22.5514C86.2568 22.7812 86.3733 23.0642 86.3733 23.4039C86.3733 23.7436 86.2568 24.02 86.0237 24.2498C85.7906 24.4795 85.5042 24.5961 85.1645 24.5961C84.8248 24.5961 84.5151 24.4829 84.2754 24.2564C84.0356 24.03 83.9157 23.7502 83.9157 23.4139Z" fill="white"/>
<path d="M87.7054 24.5694L86.8795 22.6813C86.8029 22.5081 86.7197 22.4115 86.6298 22.3982L86.4532 22.3716V22.2683H87.6155V22.3716C87.369 22.3782 87.2458 22.4282 87.2458 22.5181C87.2458 22.5614 87.2625 22.618 87.2958 22.6946L87.8985 24.1132L88.4813 22.7945C88.5113 22.7279 88.5279 22.668 88.5279 22.618C88.5279 22.4681 88.3914 22.3849 88.1183 22.3682V22.265H89.1107V22.3682C88.9175 22.4015 88.7677 22.5414 88.6611 22.7845L87.8752 24.5694H87.7054Z" fill="white"/>
<path d="M89.5869 22.9244H90.7558C90.7258 22.7379 90.6592 22.588 90.5526 22.4781C90.4494 22.3649 90.3262 22.3083 90.1896 22.3083C89.8899 22.3083 89.6868 22.5148 89.5869 22.9244ZM91.2353 23.0742H89.5702C89.5536 23.1875 89.5469 23.2674 89.5469 23.314C89.5469 23.6037 89.6335 23.8402 89.8067 24.0266C89.9798 24.2131 90.183 24.3064 90.4128 24.3064C90.6858 24.3064 90.9289 24.1831 91.1354 23.9367L91.1987 24.0067C90.8856 24.3963 90.5493 24.5928 90.183 24.5928C89.9033 24.5928 89.6668 24.4795 89.477 24.2564C89.2872 24.0333 89.1906 23.7536 89.1906 23.4239C89.1906 23.0942 89.2872 22.8211 89.4803 22.5847C89.6901 22.3316 89.9599 22.2017 90.2896 22.2017C90.516 22.2017 90.6992 22.2517 90.8324 22.3516C90.9223 22.4182 91.0055 22.5248 91.0788 22.6713C91.1554 22.8278 91.2053 22.9177 91.232 22.9444V23.0742H91.2353Z" fill="white"/>
<path d="M92.3342 23.001V24.1066C92.3342 24.2231 92.3609 24.3064 92.4142 24.3497C92.4674 24.393 92.564 24.4163 92.7039 24.4163H92.9203V24.5262H91.5683V24.4163C91.7115 24.4129 91.8114 24.3796 91.868 24.313C91.9246 24.2498 91.9513 24.1399 91.9513 23.9867V22.6713L91.5683 22.5348V22.4382L92.2177 22.2117H92.3309V22.8145H92.3409C92.4941 22.5647 92.5973 22.4115 92.6473 22.3516C92.7105 22.275 92.7905 22.2384 92.8804 22.2384C92.927 22.2384 92.9903 22.255 93.0735 22.2883C93.1268 22.3017 93.2267 22.3316 93.3699 22.3749L93.2334 22.7179C93.1335 22.7079 93.0336 22.6746 92.9303 22.628C92.8504 22.5914 92.7838 22.5714 92.7305 22.5714C92.6539 22.5714 92.5807 22.6213 92.5074 22.7212C92.4275 22.8311 92.3675 22.9277 92.3242 23.0076" fill="white"/>
<path d="M95.1715 22.265L95.0816 22.5148H94.3557V23.8435C94.3557 24.0033 94.4023 24.1299 94.4989 24.2198C94.5754 24.2864 94.652 24.323 94.732 24.323C94.8518 24.323 94.9684 24.2264 95.0816 24.0366L95.1715 24.1232C95.0284 24.4362 94.8219 24.5894 94.5488 24.5894C94.3823 24.5894 94.2424 24.5261 94.1359 24.3996C94.026 24.2731 93.9727 24.1165 93.9727 23.9267V22.5114H93.7096V22.4215C93.9361 22.3116 94.1192 22.0719 94.2558 21.6989H94.3523V22.265H95.1715Z" fill="white"/>
<path d="M96.9265 24.1066L97.4127 22.8977C97.4659 22.7645 97.4926 22.6613 97.4926 22.5847C97.4926 22.4482 97.376 22.3749 97.1396 22.3682V22.265H98.0854V22.3682C97.8789 22.3949 97.7224 22.5481 97.6125 22.8245L96.6434 25.2421C96.4802 25.6484 96.3137 25.8515 96.1406 25.8515C95.9841 25.8515 95.9074 25.7849 95.9074 25.6517C95.9074 25.5618 95.9674 25.4952 96.0906 25.4586C96.2538 25.4053 96.3504 25.362 96.3803 25.332C96.4536 25.2588 96.5169 25.1522 96.5735 25.009L96.7433 24.5828L95.8608 22.7079C95.8042 22.5847 95.7443 22.5014 95.6777 22.4515C95.6144 22.4015 95.5245 22.3749 95.4079 22.3716V22.2683H96.5535V22.3716C96.3337 22.3716 96.2238 22.4282 96.2238 22.5314C96.2238 22.578 96.2438 22.6413 96.2804 22.7212L96.9231 24.1132L96.9265 24.1066Z" fill="white"/>
<path d="M71.188 23.001V24.1066C71.188 24.2231 71.2146 24.3064 71.2679 24.3497C71.3212 24.393 71.4177 24.4163 71.5576 24.4163H71.7741V24.5262H70.422V24.4163C70.5652 24.4129 70.6651 24.3796 70.7217 24.313C70.7784 24.2498 70.805 24.1399 70.805 23.9867V22.6713L70.422 22.5348V22.4382L71.0714 22.2117H71.1846V22.8145H71.1946C71.3478 22.5647 71.451 22.4115 71.5043 22.3516C71.5676 22.275 71.6475 22.2384 71.7374 22.2384C71.784 22.2384 71.8473 22.255 71.9306 22.2883C71.9839 22.3017 72.0838 22.3316 72.227 22.3749L72.0904 22.7179C71.9905 22.7079 71.8906 22.6746 71.7874 22.628C71.7075 22.5914 71.6409 22.5714 71.5876 22.5714C71.511 22.5714 71.4377 22.6213 71.3645 22.7212C71.2845 22.8311 71.2246 22.9277 71.1813 23.0076" fill="white"/>
<path d="M21.8889 1.44859C21.6558 1.76495 21.4893 2.11461 21.406 2.5009C21.2895 2.88386 21.2895 3.28347 21.3894 3.70307C21.4726 4.10268 21.6558 4.46899 21.8889 4.80533C22.1387 5.13834 22.4384 5.38809 22.8247 5.6212C23.191 5.83766 23.574 5.97086 24.0102 6.07076C24.4598 6.15402 24.896 6.15402 25.3622 6.08741C25.7951 5.98751 26.2147 5.85431 26.5977 5.6212C26.9474 5.40474 27.2637 5.13834 27.5168 4.80533C27.7666 4.48897 27.9164 4.12266 27.9997 3.75302C28.0996 3.37006 28.1162 2.97045 28.0163 2.5675C27.9331 2.15124 27.7666 1.78493 27.5168 1.44859C27.2671 1.13223 26.9507 0.865825 26.5811 0.632718C26.2147 0.416262 25.8318 0.266408 25.3955 0.166505C24.946 0.0832524 24.4931 0.0832524 24.0435 0.166505C23.5939 0.233107 23.191 0.399611 22.808 0.616068C22.4417 0.832524 22.142 1.11558 21.8889 1.44859ZM21.7058 12.4945L21.2229 13.2105C21.5892 12.8941 22.2752 12.4779 23.2409 11.9584C23.8903 11.6087 25.4755 10.7729 27.9964 9.49077C29.8979 8.50506 31.4663 7.03982 32.6852 5.08506C33.0848 4.45234 33.4344 3.79964 33.7208 3.11697C33.8873 2.71736 34.0205 2.3677 34.1038 2.08131C34.1371 1.96476 34.1537 1.7483 34.1537 1.48189C34.1704 1.18218 34.1537 0.882475 34.1204 0.649369C34.0871 0.34966 34.0372 0.149854 33.9539 0.0499514C33.854 -0.0499514 33.7375 0 33.6209 0.199806C32.7351 1.41862 31.6861 2.5675 30.4507 3.61981C29.1319 4.72208 27.68 5.67115 26.0782 6.49036C24.0768 7.47606 22.4417 8.50839 21.1563 9.57735C19.8875 10.613 18.7186 11.8951 17.6363 13.4136C17.5031 13.6134 17.3866 13.8798 17.2867 14.2461C17.4532 14.1296 17.653 14.0963 17.9028 14.1296L17.5198 14.8955L18.1359 14.396C18.3357 14.2295 18.5188 14.1129 18.702 14.063L18.5521 14.5958C18.9517 14.1962 19.4879 13.8132 20.104 13.4103L19.8875 13.9431C20.1706 13.6601 20.4536 13.4103 20.7367 13.2105L21.7058 12.4945ZM26.3779 10.8594C25.7119 11.2424 25.1091 11.6587 24.5763 12.1282C23.5906 12.9807 22.7747 14.063 22.1254 15.3651C21.476 16.5506 20.9731 18.0325 20.5735 19.8207C20.3904 20.6732 20.2738 21.4725 20.2405 22.2384L20.6734 21.639C20.5402 22.4382 20.457 23.324 20.4403 24.2764C20.6401 23.9267 20.7733 23.6936 20.8732 23.5604L20.8233 25.8615L21.7757 23.5604C21.8423 23.7602 21.8922 23.9767 21.9588 24.2264C22.5416 22.8744 23.0445 21.7588 23.494 20.873C23.9436 19.924 24.4131 19.0881 24.8627 18.3721C25.2956 17.6562 25.7985 16.9535 26.3313 16.2875C26.8142 15.6881 27.4336 14.9688 28.1828 14.1862C28.316 14.0031 29.102 13.6534 29.1519 13.6367C29.4849 13.5202 29.9012 13.387 30.4373 13.2538C30.6871 13.1872 31.2898 13.054 32.2056 12.8209C33.0049 12.6377 33.6576 12.4546 34.1571 12.338C35.7089 11.9051 36.8944 11.4355 37.7436 10.936C38.8292 10.27 39.462 9.50076 39.6118 8.60164C38.5595 8.83474 37.5105 8.9846 36.4249 9.0512C35.8421 9.0845 34.973 9.10115 33.7874 9.10115C32.7518 9.10115 31.9525 9.1178 31.3864 9.1844C30.5173 9.28431 29.6681 9.45081 28.8489 9.75052C27.9298 10.0669 27.1139 10.4332 26.3812 10.8694" fill="white"/>
</svg>
